<svg width="850" height="160" viewBox="0 0 850 160" xmlns="http://www.w3.org/2000/svg" style="background-color:#1a1a1a; font-family: monospace;"><text x="70" y="45" fill="#888" font-size="14">1001 tests</text><text x="750" y="45" fill="#888" font-size="12">less ■■■■■ more</text><text x="5" y="75" fill="#888" font-size="10">monday</text><text x="5" y="105" fill="#888" font-size="10">wednesday</text><text x="5" y="135" fill="#888" font-size="10">friday</text><text x="70" y="155" fill="#555" font-size="10">mar</text><rect x="70" y="60" width="12" height="12" fill="#2d2d2d" rx="2" /><rect x="70" y="75" width="12" height="12" fill="#2d2d2d" rx="2" /><rect x="70" y="90" width="12" height="12" fill="#2d2d2d" rx="2" /><rect x="70" y="105" width="12" height="12" fill="#2d2d2d" rx="2" /><rect x="70" y="120" width="12" height="12" fill="#2d2d2d" rx="2" /><rect x="70" y="135" width="12" height="12" fill="#2d2d2d" rx="2" /><rect x="70" y="150" width="12" height="12" fill="#2d2d2d" rx="2" /><rect x="85" y="60" width="12" height="12" fill="#2d2d2d" rx="2" /><rect x="85" y="75" width="12" height="12" fill="#2d2d2d" rx="2" /><rect x="85" y="90" width="12" height="12" fill="#2d2d2d" rx="2" /><rect x="85" y="105" width="12" height="12" fill="#2d2d2d" rx="2" /><rect x="85" y="120" width="12" height="12" fill="#2d2d2d" rx="2" /><rect x="85" y="135" width="12" height="12" fill="#2d2d2d" rx="2" /><rect x="85" y="150" width="12" height="12" fill="#2d2d2d" rx="2" /><rect x="100" y="60" width="12" height="12" fill="#2d2d2d" rx="2" /><rect x="100" y="75" width="12" height="12" fill="#2d2d2d" rx="2" /><rect x="100" y="90" width="12" height="12" fill="#2d2d2d" rx="2" /><rect x="100" y="105" width="12" height="12" fill="#2d2d2d" rx="2" /><rect x="100" y="120" width="12" height="12" fill="#2d2d2d" rx="2" /><rect x="100" y="135" width="12" height="12" fill="#2d2d2d" rx="2" /><rect x="100" y="150" width="12" height="12" fill="#2d2d2d" rx="2" /><rect x="115" y="60" width="12" height="12" fill="#2d2d2d" rx="2" /><rect x="115" y="75" width="12" height="12" fill="#2d2d2d" rx="2" /><rect x="115" y="90" width="12" height="12" fill="#2d2d2d" rx="2" /><rect x="115" y="105" width="12" height="12" fill="#2d2d2d" rx="2" /><rect x="115" y="120" width="12" height="12" fill="#2d2d2d" rx="2" /><rect x="115" y="135" width="12" height="12" fill="#2d2d2d" rx="2" /><rect x="115" y="150" width="12" height="12" fill="#2d2d2d" rx="2" /><rect x="130" y="60" width="12" height="12" fill="#2d2d2d" rx="2" /><rect x="130" y="75" width="12" height="12" fill="#2d2d2d" rx="2" /><rect x="130" y="90" width="12" height="12" fill="#2d2d2d" rx="2" /><rect x="130" y="105" width="12" height="12" fill="#2d2d2d" rx="2" /><rect x="130" y="120" width="12" height="12" fill="#2d2d2d" rx="2" /><rect x="130" y="135" width="12" height="12" fill="#2d2d2d" rx="2" /><rect x="130" y="150" width="12" height="12" fill="#2d2d2d" rx="2" /><text x="145" y="155" fill="#555" font-size="10">apr</text><rect x="145" y="60" width="12" height="12" fill="#2d2d2d" rx="2" /><rect x="145" y="75" width="12" height="12" fill="#2d2d2d" rx="2" /><rect x="145" y="90" width="12" height="12" fill="#2d2d2d" rx="2" /><rect x="145" y="105" width="12" height="12" fill="#2d2d2d" rx="2" /><rect x="145" y="120" width="12" height="12" fill="#2d2d2d" rx="2" /><rect x="145" y="135" width="12" height="12" fill="#2d2d2d" rx="2" /><rect x="145" y="150" width="12" height="12" fill="#2d2d2d" rx="2" /><rect x="160" y="60" width="12" height="12" fill="#2d2d2d" rx="2" /><rect x="160" y="75" width="12" height="12" fill="#2d2d2d" rx="2" /><rect x="160" y="90" width="12" height="12" fill="#2d2d2d" rx="2" /><rect x="160" y="105" width="12" height="12" fill="#2d2d2d" rx="2" /><rect x="160" y="120" width="12" height="12" fill="#2d2d2d" rx="2" /><rect x="160" y="135" width="12" height="12" fill="#2d2d2d" rx="2" /><rect x="160" y="150" width="12" height="12" fill="#2d2d2d" rx="2" /><rect x="175" y="60" width="12" height="12" fill="#2d2d2d" rx="2" /><rect x="175" y="75" width="12" height="12" fill="#2d2d2d" rx="2" /><rect x="175" y="90" width="12" height="12" fill="#2d2d2d" rx="2" /><rect x="175" y="105" width="12" height="12" fill="#2d2d2d" rx="2" /><rect x="175" y="120" width="12" height="12" fill="#2d2d2d" rx="2" /><rect x="175" y="135" width="12" height="12" fill="#2d2d2d" rx="2" /><rect x="175" y="150" width="12" height="12" fill="#2d2d2d" rx="2" /><rect x="190" y="60" width="12" height="12" fill="#2d2d2d" rx="2" /><rect x="190" y="75" width="12" height="12" fill="#2d2d2d" rx="2" /><rect x="190" y="90" width="12" height="12" fill="#2d2d2d" rx="2" /><rect x="190" y="105" width="12" height="12" fill="#2d2d2d" rx="2" /><rect x="190" y="120" width="12" height="12" fill="#2d2d2d" rx="2" /><rect x="190" y="135" width="12" height="12" fill="#2d2d2d" rx="2" /><rect x="190" y="150" width="12" height="12" fill="#2d2d2d" rx="2" /><text x="205" y="155" fill="#555" font-size="10">may</text><rect x="205" y="60" width="12" height="12" fill="#2d2d2d" rx="2" /><rect x="205" y="75" width="12" height="12" fill="#2d2d2d" rx="2" /><rect x="205" y="90" width="12" height="12" fill="#2d2d2d" rx="2" /><rect x="205" y="105" width="12" height="12" fill="#2d2d2d" rx="2" /><rect x="205" y="120" width="12" height="12" fill="#2d2d2d" rx="2" /><rect x="205" y="135" width="12" height="12" fill="#2d2d2d" rx="2" /><rect x="205" y="150" width="12" height="12" fill="#2d2d2d" rx="2" /><rect x="220" y="60" width="12" height="12" fill="#2d2d2d" rx="2" /><rect x="220" y="75" width="12" height="12" fill="#2d2d2d" rx="2" /><rect x="220" y="90" width="12" height="12" fill="#2d2d2d" rx="2" /><rect x="220" y="105" width="12" height="12" fill="#2d2d2d" rx="2" /><rect x="220" y="120" width="12" height="12" fill="#2d2d2d" rx="2" /><rect x="220" y="135" width="12" height="12" fill="#2d2d2d" rx="2" /><rect x="220" y="150" width="12" height="12" fill="#2d2d2d" rx="2" /><rect x="235" y="60" width="12" height="12" fill="#2d2d2d" rx="2" /><rect x="235" y="75" width="12" height="12" fill="#2d2d2d" rx="2" /><rect x="235" y="90" width="12" height="12" fill="#2d2d2d" rx="2" /><rect x="235" y="105" width="12" height="12" fill="#2d2d2d" rx="2" /><rect x="235" y="120" width="12" height="12" fill="#2d2d2d" rx="2" /><rect x="235" y="135" width="12" height="12" fill="#2d2d2d" rx="2" /><rect x="235" y="150" width="12" height="12" fill="#2d2d2d" rx="2" /><rect x="250" y="60" width="12" height="12" fill="#2d2d2d" rx="2" /><rect x="250" y="75" width="12" height="12" fill="#2d2d2d" rx="2" /><rect x="250" y="90" width="12" height="12" fill="#2d2d2d" rx="2" /><rect x="250" y="105" width="12" height="12" fill="#2d2d2d" rx="2" /><rect x="250" y="120" width="12" height="12" fill="#2d2d2d" rx="2" /><rect x="250" y="135" width="12" height="12" fill="#2d2d2d" rx="2" /><rect x="250" y="150" width="12" height="12" fill="#2d2d2d" rx="2" /><text x="265" y="155" fill="#555" font-size="10">jun</text><rect x="265" y="60" width="12" height="12" fill="#2d2d2d" rx="2" /><rect x="265" y="75" width="12" height="12" fill="#2d2d2d" rx="2" /><rect x="265" y="90" width="12" height="12" fill="#2d2d2d" rx="2" /><rect x="265" y="105" width="12" height="12" fill="#2d2d2d" rx="2" /><rect x="265" y="120" width="12" height="12" fill="#2d2d2d" rx="2" /><rect x="265" y="135" width="12" height="12" fill="#2d2d2d" rx="2" /><rect x="265" y="150" width="12" height="12" fill="#2d2d2d" rx="2" /><rect x="280" y="60" width="12" height="12" fill="#2d2d2d" rx="2" /><rect x="280" y="75" width="12" height="12" fill="#2d2d2d" rx="2" /><rect x="280" y="90" width="12" height="12" fill="#2d2d2d" rx="2" /><rect x="280" y="105" width="12" height="12" fill="#2d2d2d" rx="2" /><rect x="280" y="120" width="12" height="12" fill="#2d2d2d" rx="2" /><rect x="280" y="135" width="12" height="12" fill="#2d2d2d" rx="2" /><rect x="280" y="150" width="12" height="12" fill="#2d2d2d" rx="2" /><rect x="295" y="60" width="12" height="12" fill="#2d2d2d" rx="2" /><rect x="295" y="75" width="12" height="12" fill="#2d2d2d" rx="2" /><rect x="295" y="90" width="12" height="12" fill="#2d2d2d" rx="2" /><rect x="295" y="105" width="12" height="12" fill="#2d2d2d" rx="2" /><rect x="295" y="120" width="12" height="12" fill="#2d2d2d" rx="2" /><rect x="295" y="135" width="12" height="12" fill="#2d2d2d" rx="2" /><rect x="295" y="150" width="12" height="12" fill="#2d2d2d" rx="2" /><rect x="310" y="60" width="12" height="12" fill="#2d2d2d" rx="2" /><rect x="310" y="75" width="12" height="12" fill="#2d2d2d" rx="2" /><rect x="310" y="90" width="12" height="12" fill="#2d2d2d" rx="2" /><rect x="310" y="105" width="12" height="12" fill="#2d2d2d" rx="2" /><rect x="310" y="120" width="12" height="12" fill="#2d2d2d" rx="2" /><rect x="310" y="135" width="12" height="12" fill="#2d2d2d" rx="2" /><rect x="310" y="150" width="12" height="12" fill="#2d2d2d" rx="2" /><rect x="325" y="60" width="12" height="12" fill="#2d2d2d" rx="2" /><rect x="325" y="75" width="12" height="12" fill="#2d2d2d" rx="2" /><rect x="325" y="90" width="12" height="12" fill="#2d2d2d" rx="2" /><rect x="325" y="105" width="12" height="12" fill="#2d2d2d" rx="2" /><rect x="325" y="120" width="12" height="12" fill="#2d2d2d" rx="2" /><rect x="325" y="135" width="12" height="12" fill="#2d2d2d" rx="2" /><rect x="325" y="150" width="12" height="12" fill="#2d2d2d" rx="2" /><text x="340" y="155" fill="#555" font-size="10">jul</text><rect x="340" y="60" width="12" height="12" fill="#2d2d2d" rx="2" /><rect x="340" y="75" width="12" height="12" fill="#2d2d2d" rx="2" /><rect x="340" y="90" width="12" height="12" fill="#2d2d2d" rx="2" /><rect x="340" y="105" width="12" height="12" fill="#2d2d2d" rx="2" /><rect x="340" y="120" width="12" height="12" fill="#2d2d2d" rx="2" /><rect x="340" y="135" width="12" height="12" fill="#2d2d2d" rx="2" /><rect x="340" y="150" width="12" height="12" fill="#2d2d2d" rx="2" /><rect x="355" y="60" width="12" height="12" fill="#2d2d2d" rx="2" /><rect x="355" y="75" width="12" height="12" fill="#2d2d2d" rx="2" /><rect x="355" y="90" width="12" height="12" fill="#2d2d2d" rx="2" /><rect x="355" y="105" width="12" height="12" fill="#2d2d2d" rx="2" /><rect x="355" y="120" width="12" height="12" fill="#2d2d2d" rx="2" /><rect x="355" y="135" width="12" height="12" fill="#2d2d2d" rx="2" /><rect x="355" y="150" width="12" height="12" fill="#2d2d2d" rx="2" /><rect x="370" y="60" width="12" height="12" fill="#2d2d2d" rx="2" /><rect x="370" y="75" width="12" height="12" fill="#2d2d2d" rx="2" /><rect x="370" y="90" width="12" height="12" fill="#2d2d2d" rx="2" /><rect x="370" y="105" width="12" height="12" fill="#2d2d2d" rx="2" /><rect x="370" y="120" width="12" height="12" fill="#2d2d2d" rx="2" /><rect x="370" y="135" width="12" height="12" fill="#2d2d2d" rx="2" /><rect x="370" y="150" width="12" height="12" fill="#2d2d2d" rx="2" /><rect x="385" y="60" width="12" height="12" fill="#2d2d2d" rx="2" /><rect x="385" y="75" width="12" height="12" fill="#2d2d2d" rx="2" /><rect x="385" y="90" width="12" height="12" fill="#2d2d2d" rx="2" /><rect x="385" y="105" width="12" height="12" fill="#2d2d2d" rx="2" /><rect x="385" y="120" width="12" height="12" fill="#2d2d2d" rx="2" /><rect x="385" y="135" width="12" height="12" fill="#2d2d2d" rx="2" /><rect x="385" y="150" width="12" height="12" fill="#2d2d2d" rx="2" /><text x="400" y="155" fill="#555" font-size="10">aug</text><rect x="400" y="60" width="12" height="12" fill="#2d2d2d" rx="2" /><rect x="400" y="75" width="12" height="12" fill="#2d2d2d" rx="2" /><rect x="400" y="90" width="12" height="12" fill="#2d2d2d" rx="2" /><rect x="400" y="105" width="12" height="12" fill="#2d2d2d" rx="2" /><rect x="400" y="120" width="12" height="12" fill="#2d2d2d" rx="2" /><rect x="400" y="135" width="12" height="12" fill="#2d2d2d" rx="2" /><rect x="400" y="150" width="12" height="12" fill="#2d2d2d" rx="2" /><rect x="415" y="60" width="12" height="12" fill="#2d2d2d" rx="2" /><rect x="415" y="75" width="12" height="12" fill="#2d2d2d" rx="2" /><rect x="415" y="90" width="12" height="12" fill="#2d2d2d" rx="2" /><rect x="415" y="105" width="12" height="12" fill="#2d2d2d" rx="2" /><rect x="415" y="120" width="12" height="12" fill="#2d2d2d" rx="2" /><rect x="415" y="135" width="12" height="12" fill="#2d2d2d" rx="2" /><rect x="415" y="150" width="12" height="12" fill="#2d2d2d" rx="2" /><rect x="430" y="60" width="12" height="12" fill="#2d2d2d" rx="2" /><rect x="430" y="75" width="12" height="12" fill="#2d2d2d" rx="2" /><rect x="430" y="90" width="12" height="12" fill="#2d2d2d" rx="2" /><rect x="430" y="105" width="12" height="12" fill="#2d2d2d" rx="2" /><rect x="430" y="120" width="12" height="12" fill="#2d2d2d" rx="2" /><rect x="430" y="135" width="12" height="12" fill="#2d2d2d" rx="2" /><rect x="430" y="150" width="12" height="12" fill="#2d2d2d" rx="2" /><rect x="445" y="60" width="12" height="12" fill="#2d2d2d" rx="2" /><rect x="445" y="75" width="12" height="12" fill="#2d2d2d" rx="2" /><rect x="445" y="90" width="12" height="12" fill="#2d2d2d" rx="2" /><rect x="445" y="105" width="12" height="12" fill="#2d2d2d" rx="2" /><rect x="445" y="120" width="12" height="12" fill="#2d2d2d" rx="2" /><rect x="445" y="135" width="12" height="12" fill="#2d2d2d" rx="2" /><rect x="445" y="150" width="12" height="12" fill="#2d2d2d" rx="2" /><rect x="460" y="60" width="12" height="12" fill="#2d2d2d" rx="2" /><rect x="460" y="75" width="12" height="12" fill="#2d2d2d" rx="2" /><rect x="460" y="90" width="12" height="12" fill="#2d2d2d" rx="2" /><rect x="460" y="105" width="12" height="12" fill="#2d2d2d" rx="2" /><rect x="460" y="120" width="12" height="12" fill="#2d2d2d" rx="2" /><rect x="460" y="135" width="12" height="12" fill="#2d2d2d" rx="2" /><rect x="460" y="150" width="12" height="12" fill="#2d2d2d" rx="2" /><text x="475" y="155" fill="#555" font-size="10">sep</text><rect x="475" y="60" width="12" height="12" fill="#2d2d2d" rx="2" /><rect x="475" y="75" width="12" height="12" fill="#2d2d2d" rx="2" /><rect x="475" y="90" width="12" height="12" fill="#2d2d2d" rx="2" /><rect x="475" y="105" width="12" height="12" fill="#2d2d2d" rx="2" /><rect x="475" y="120" width="12" height="12" fill="#2d2d2d" rx="2" /><rect x="475" y="135" width="12" height="12" fill="#2d2d2d" rx="2" /><rect x="475" y="150" width="12" height="12" fill="#2d2d2d" rx="2" /><rect x="490" y="60" width="12" height="12" fill="#2d2d2d" rx="2" /><rect x="490" y="75" width="12" height="12" fill="#2d2d2d" rx="2" /><rect x="490" y="90" width="12" height="12" fill="#2d2d2d" rx="2" /><rect x="490" y="105" width="12" height="12" fill="#2d2d2d" rx="2" /><rect x="490" y="120" width="12" height="12" fill="#2d2d2d" rx="2" /><rect x="490" y="135" width="12" height="12" fill="#2d2d2d" rx="2" /><rect x="490" y="150" width="12" height="12" fill="#2d2d2d" rx="2" /><rect x="505" y="60" width="12" height="12" fill="#2d2d2d" rx="2" /><rect x="505" y="75" width="12" height="12" fill="#2d2d2d" rx="2" /><rect x="505" y="90" width="12" height="12" fill="#2d2d2d" rx="2" /><rect x="505" y="105" width="12" height="12" fill="#2d2d2d" rx="2" /><rect x="505" y="120" width="12" height="12" fill="#2d2d2d" rx="2" /><rect x="505" y="135" width="12" height="12" fill="#2d2d2d" rx="2" /><rect x="505" y="150" width="12" height="12" fill="#2d2d2d" rx="2" /><rect x="520" y="60" width="12" height="12" fill="#2d2d2d" rx="2" /><rect x="520" y="75" width="12" height="12" fill="#2d2d2d" rx="2" /><rect x="520" y="90" width="12" height="12" fill="#2d2d2d" rx="2" /><rect x="520" y="105" width="12" height="12" fill="#2d2d2d" rx="2" /><rect x="520" y="120" width="12" height="12" fill="#2d2d2d" rx="2" /><rect x="520" y="135" width="12" height="12" fill="#2d2d2d" rx="2" /><rect x="520" y="150" width="12" height="12" fill="#2d2d2d" rx="2" /><text x="535" y="155" fill="#555" font-size="10">oct</text><rect x="535" y="60" width="12" height="12" fill="#2d2d2d" rx="2" /><rect x="535" y="75" width="12" height="12" fill="#2d2d2d" rx="2" /><rect x="535" y="90" width="12" height="12" fill="#2d2d2d" rx="2" /><rect x="535" y="105" width="12" height="12" fill="#2d2d2d" rx="2" /><rect x="535" y="120" width="12" height="12" fill="#2d2d2d" rx="2" /><rect x="535" y="135" width="12" height="12" fill="#2d2d2d" rx="2" /><rect x="535" y="150" width="12" height="12" fill="#2d2d2d" rx="2" /><rect x="550" y="60" width="12" height="12" fill="#2d2d2d" rx="2" /><rect x="550" y="75" width="12" height="12" fill="#2d2d2d" rx="2" /><rect x="550" y="90" width="12" height="12" fill="#2d2d2d" rx="2" /><rect x="550" y="105" width="12" height="12" fill="#2d2d2d" rx="2" /><rect x="550" y="120" width="12" height="12" fill="#2d2d2d" rx="2" /><rect x="550" y="135" width="12" height="12" fill="#2d2d2d" rx="2" /><rect x="550" y="150" width="12" height="12" fill="#2d2d2d" rx="2" /><rect x="565" y="60" width="12" height="12" fill="#2d2d2d" rx="2" /><rect x="565" y="75" width="12" height="12" fill="#2d2d2d" rx="2" /><rect x="565" y="90" width="12" height="12" fill="#2d2d2d" rx="2" /><rect x="565" y="105" width="12" height="12" fill="#2d2d2d" rx="2" /><rect x="565" y="120" width="12" height="12" fill="#2d2d2d" rx="2" /><rect x="565" y="135" width="12" height="12" fill="#2d2d2d" rx="2" /><rect x="565" y="150" width="12" height="12" fill="#2d2d2d" rx="2" /><rect x="580" y="60" width="12" height="12" fill="#2d2d2d" rx="2" /><rect x="580" y="75" width="12" height="12" fill="#2d2d2d" rx="2" /><rect x="580" y="90" width="12" height="12" fill="#2d2d2d" rx="2" /><rect x="580" y="105" width="12" height="12" fill="#2d2d2d" rx="2" /><rect x="580" y="120" width="12" height="12" fill="#2d2d2d" rx="2" /><rect x="580" y="135" width="12" height="12" fill="#2d2d2d" rx="2" /><rect x="580" y="150" width="12" height="12" fill="#2d2d2d" rx="2" /><text x="595" y="155" fill="#555" font-size="10">nov</text><rect x="595" y="60" width="12" height="12" fill="#2d2d2d" rx="2" /><rect x="595" y="75" width="12" height="12" fill="#2d2d2d" rx="2" /><rect x="595" y="90" width="12" height="12" fill="#2d2d2d" rx="2" /><rect x="595" y="105" width="12" height="12" fill="#2d2d2d" rx="2" /><rect x="595" y="120" width="12" height="12" fill="#2d2d2d" rx="2" /><rect x="595" y="135" width="12" height="12" fill="#2d2d2d" rx="2" /><rect x="595" y="150" width="12" height="12" fill="#2d2d2d" rx="2" /><rect x="610" y="60" width="12" height="12" fill="#2d2d2d" rx="2" /><rect x="610" y="75" width="12" height="12" fill="#2d2d2d" rx="2" /><rect x="610" y="90" width="12" height="12" fill="#2d2d2d" rx="2" /><rect x="610" y="105" width="12" height="12" fill="#2d2d2d" rx="2" /><rect x="610" y="120" width="12" height="12" fill="#2d2d2d" rx="2" /><rect x="610" y="135" width="12" height="12" fill="#2d2d2d" rx="2" /><rect x="610" y="150" width="12" height="12" fill="#2d2d2d" rx="2" /><rect x="625" y="60" width="12" height="12" fill="#2d2d2d" rx="2" /><rect x="625" y="75" width="12" height="12" fill="#2d2d2d" rx="2" /><rect x="625" y="90" width="12" height="12" fill="#2d2d2d" rx="2" /><rect x="625" y="105" width="12" height="12" fill="#2d2d2d" rx="2" /><rect x="625" y="120" width="12" height="12" fill="#2d2d2d" rx="2" /><rect x="625" y="135" width="12" height="12" fill="#2d2d2d" rx="2" /><rect x="625" y="150" width="12" height="12" fill="#2d2d2d" rx="2" /><rect x="640" y="60" width="12" height="12" fill="#2d2d2d" rx="2" /><rect x="640" y="75" width="12" height="12" fill="#2d2d2d" rx="2" /><rect x="640" y="90" width="12" height="12" fill="#2d2d2d" rx="2" /><rect x="640" y="105" width="12" height="12" fill="#2d2d2d" rx="2" /><rect x="640" y="120" width="12" height="12" fill="#2d2d2d" rx="2" /><rect x="640" y="135" width="12" height="12" fill="#2d2d2d" rx="2" /><rect x="640" y="150" width="12" height="12" fill="#2d2d2d" rx="2" /><rect x="655" y="60" width="12" height="12" fill="#2d2d2d" rx="2" /><rect x="655" y="75" width="12" height="12" fill="#2d2d2d" rx="2" /><rect x="655" y="90" width="12" height="12" fill="#2d2d2d" rx="2" /><rect x="655" y="105" width="12" height="12" fill="#2d2d2d" rx="2" /><rect x="655" y="120" width="12" height="12" fill="#2d2d2d" rx="2" /><rect x="655" y="135" width="12" height="12" fill="#2d2d2d" rx="2" /><rect x="655" y="150" width="12" height="12" fill="#2d2d2d" rx="2" /><text x="670" y="155" fill="#555" font-size="10">dec</text><rect x="670" y="60" width="12" height="12" fill="#2d2d2d" rx="2" /><rect x="670" y="75" width="12" height="12" fill="#2d2d2d" rx="2" /><rect x="670" y="90" width="12" height="12" fill="#2d2d2d" rx="2" /><rect x="670" y="105" width="12" height="12" fill="#2d2d2d" rx="2" /><rect x="670" y="120" width="12" height="12" fill="#2d2d2d" rx="2" /><rect x="670" y="135" width="12" height="12" fill="#2d2d2d" rx="2" /><rect x="670" y="150" width="12" height="12" fill="#2d2d2d" rx="2" /><rect x="685" y="60" width="12" height="12" fill="#2d2d2d" rx="2" /><rect x="685" y="75" width="12" height="12" fill="#2d2d2d" rx="2" /><rect x="685" y="90" width="12" height="12" fill="#2d2d2d" rx="2" /><rect x="685" y="105" width="12" height="12" fill="#2d2d2d" rx="2" /><rect x="685" y="120" width="12" height="12" fill="#2d2d2d" rx="2" /><rect x="685" y="135" width="12" height="12" fill="#2d2d2d" rx="2" /><rect x="685" y="150" width="12" height="12" fill="#2d2d2d" rx="2" /><rect x="700" y="60" width="12" height="12" fill="#2d2d2d" rx="2" /><rect x="700" y="75" width="12" height="12" fill="#2d2d2d" rx="2" /><rect x="700" y="90" width="12" height="12" fill="#2d2d2d" rx="2" /><rect x="700" y="105" width="12" height="12" fill="#2d2d2d" rx="2" /><rect x="700" y="120" width="12" height="12" fill="#2d2d2d" rx="2" /><rect x="700" y="135" width="12" height="12" fill="#4d4d00" rx="2" /><rect x="700" y="150" width="12" height="12" fill="#ffff00" rx="2" /><rect x="715" y="60" width="12" height="12" fill="#ffff00" rx="2" /><rect x="715" y="75" width="12" height="12" fill="#2d2d2d" rx="2" /><rect x="715" y="90" width="12" height="12" fill="#2d2d2d" rx="2" /><rect x="715" y="105" width="12" height="12" fill="#2d2d2d" rx="2" /><rect x="715" y="120" width="12" height="12" fill="#2d2d2d" rx="2" /><rect x="715" y="135" width="12" height="12" fill="#2d2d2d" rx="2" /><rect x="715" y="150" width="12" height="12" fill="#2d2d2d" rx="2" /><text x="730" y="155" fill="#555" font-size="10">jan</text><rect x="730" y="60" width="12" height="12" fill="#2d2d2d" rx="2" /><rect x="730" y="75" width="12" height="12" fill="#2d2d2d" rx="2" /><rect x="730" y="90" width="12" height="12" fill="#2d2d2d" rx="2" /><rect x="730" y="105" width="12" height="12" fill="#2d2d2d" rx="2" /><rect x="730" y="120" width="12" height="12" fill="#2d2d2d" rx="2" /><rect x="730" y="135" width="12" height="12" fill="#2d2d2d" rx="2" /><rect x="730" y="150" width="12" height="12" fill="#2d2d2d" rx="2" /><rect x="745" y="60" width="12" height="12" fill="#2d2d2d" rx="2" /><rect x="745" y="75" width="12" height="12" fill="#2d2d2d" rx="2" /><rect x="745" y="90" width="12" height="12" fill="#2d2d2d" rx="2" /><rect x="745" y="105" width="12" height="12" fill="#2d2d2d" rx="2" /><rect x="745" y="120" width="12" height="12" fill="#2d2d2d" rx="2" /><rect x="745" y="135" width="12" height="12" fill="#e6e600" rx="2" /><rect x="745" y="150" width="12" height="12" fill="#999900" rx="2" /><rect x="760" y="60" width="12" height="12" fill="#ffff00" rx="2" /><rect x="760" y="75" width="12" height="12" fill="#4d4d00" rx="2" /><rect x="760" y="90" width="12" height="12" fill="#e6e600" rx="2" /><rect x="760" y="105" width="12" height="12" fill="#e6e600" rx="2" /><rect x="760" y="120" width="12" height="12" fill="#999900" rx="2" /><rect x="760" y="135" width="12" height="12" fill="#2d2d2d" rx="2" /><rect x="760" y="150" width="12" height="12" fill="#4d4d00" rx="2" /><rect x="775" y="60" width="12" height="12" fill="#4d4d00" rx="2" /><rect x="775" y="75" width="12" height="12" fill="#4d4d00" rx="2" /><rect x="775" y="90" width="12" height="12" fill="#4d4d00" rx="2" /><rect x="775" y="105" width="12" height="12" fill="#999900" rx="2" /><rect x="775" y="120" width="12" height="12" fill="#ffff00" rx="2" /><rect x="775" y="135" width="12" height="12" fill="#e6e600" rx="2" /><rect x="775" y="150" width="12" height="12" fill="#999900" rx="2" /><text x="790" y="155" fill="#555" font-size="10">feb</text><rect x="790" y="60" width="12" height="12" fill="#ffff00" rx="2" /><rect x="790" y="75" width="12" height="12" fill="#e6e600" rx="2" /><rect x="790" y="90" width="12" height="12" fill="#2d2d2d" rx="2" /><rect x="790" y="105" width="12" height="12" fill="#ffff00" rx="2" /><rect x="790" y="120" width="12" height="12" fill="#ffff00" rx="2" /><rect x="790" y="135" width="12" height="12" fill="#999900" rx="2" /><rect x="790" y="150" width="12" height="12" fill="#ffff00" rx="2" /><rect x="805" y="60" width="12" height="12" fill="#4d4d00" rx="2" /><rect x="805" y="75" width="12" height="12" fill="#ffff00" rx="2" /><rect x="805" y="90" width="12" height="12" fill="#e6e600" rx="2" /><rect x="805" y="105" width="12" height="12" fill="#999900" rx="2" /><rect x="805" y="120" width="12" height="12" fill="#ffff00" rx="2" /><rect x="805" y="135" width="12" height="12" fill="#4d4d00" rx="2" /><rect x="805" y="150" width="12" height="12" fill="#e6e600" rx="2" /><rect x="820" y="60" width="12" height="12" fill="#ffff00" rx="2" /><rect x="820" y="75" width="12" height="12" fill="#e6e600" rx="2" /><rect x="820" y="90" width="12" height="12" fill="#ffff00" rx="2" /><rect x="820" y="105" width="12" height="12" fill="#999900" rx="2" /><rect x="820" y="120" width="12" height="12" fill="#e6e600" rx="2" /><rect x="820" y="135" width="12" height="12" fill="#ffff00" rx="2" /><rect x="820" y="150" width="12" height="12" fill="#ffff00" rx="2" /><rect x="835" y="60" width="12" height="12" fill="#ffff00" rx="2" /><rect x="835" y="75" width="12" height="12" fill="#e6e600" rx="2" /><rect x="835" y="90" width="12" height="12" fill="#e6e600" rx="2" /><rect x="835" y="105" width="12" height="12" fill="#e6e600" rx="2" /><rect x="835" y="120" width="12" height="12" fill="#e6e600" rx="2" /><rect x="835" y="135" width="12" height="12" fill="#ffff00" rx="2" /><rect x="835" y="150" width="12" height="12" fill="#4d4d00" rx="2" /><text x="850" y="155" fill="#555" font-size="10">mar</text><rect x="850" y="60" width="12" height="12" fill="#ffff00" rx="2" /><rect x="850" y="75" width="12" height="12" fill="#ffff00" rx="2" /><rect x="850" y="90" width="12" height="12" fill="#ffff00" rx="2" /><rect x="850" y="105" width="12" height="12" fill="#e6e600" rx="2" /><rect x="850" y="120" width="12" height="12" fill="#e6e600" rx="2" /><rect x="850" y="135" width="12" height="12" fill="#ffff00" rx="2" /><rect x="850" y="150" width="12" height="12" fill="#e6e600" rx="2" /></svg>