<svg width="800" height="120" xmlns="http://www.w3.org/2000/svg"><rect x="10" y="10" width="12" height="12" fill="rgb(120, 120, 0)" rx="2" /><rect x="25" y="10" width="12" height="12" fill="rgb(255, 255, 0)" rx="2" /><rect x="40" y="10" width="12" height="12" fill="rgb(255, 255, 0)" rx="2" /><rect x="55" y="10" width="12" height="12" fill="rgb(255, 255, 0)" rx="2" /><rect x="70" y="10" width="12" height="12" fill="rgb(255, 255, 0)" rx="2" /><rect x="85" y="10" width="12" height="12" fill="rgb(255, 255, 0)" rx="2" /><rect x="100" y="10" width="12" height="12" fill="rgb(40, 40, 0)" rx="2" /><rect x="115" y="10" width="12" height="12" fill="rgb(255, 255, 0)" rx="2" /><rect x="130" y="10" width="12" height="12" fill="rgb(255, 255, 0)" rx="2" /><rect x="145" y="10" width="12" height="12" fill="rgb(255, 255, 0)" rx="2" /><rect x="160" y="10" width="12" height="12" fill="rgb(80, 80, 0)" rx="2" /><rect x="175" y="10" width="12" height="12" fill="rgb(160, 160, 0)" rx="2" /><rect x="190" y="10" width="12" height="12" fill="rgb(160, 160, 0)" rx="2" /><rect x="205" y="10" width="12" height="12" fill="rgb(40, 40, 0)" rx="2" /><rect x="220" y="10" width="12" height="12" fill="rgb(255, 255, 0)" rx="2" /><rect x="235" y="10" width="12" height="12" fill="rgb(255, 255, 0)" rx="2" /><rect x="250" y="10" width="12" height="12" fill="rgb(255, 255, 0)" rx="2" /><rect x="265" y="10" width="12" height="12" fill="rgb(255, 255, 0)" rx="2" /><rect x="280" y="10" width="12" height="12" fill="rgb(255, 255, 0)" rx="2" /><rect x="295" y="10" width="12" height="12" fill="rgb(255, 255, 0)" rx="2" /><rect x="310" y="10" width="12" height="12" fill="rgb(255, 255, 0)" rx="2" /><rect x="325" y="10" width="12" height="12" fill="rgb(255, 255, 0)" rx="2" /><rect x="340" y="10" width="12" height="12" fill="rgb(255, 255, 0)" rx="2" /><rect x="355" y="10" width="12" height="12" fill="rgb(255, 255, 0)" rx="2" /><rect x="370" y="10" width="12" height="12" fill="rgb(80, 80, 0)" rx="2" /><rect x="385" y="10" width="12" height="12" fill="rgb(255, 255, 0)" rx="2" /><rect x="400" y="10" width="12" height="12" fill="rgb(255, 255, 0)" rx="2" /><rect x="415" y="10" width="12" height="12" fill="rgb(255, 255, 0)" rx="2" /><rect x="430" y="10" width="12" height="12" fill="rgb(255, 255, 0)" rx="2" /><rect x="445" y="10" width="12" height="12" fill="rgb(160, 160, 0)" rx="2" /><rect x="460" y="10" width="12" height="12" fill="rgb(255, 255, 0)" rx="2" /><rect x="475" y="10" width="12" height="12" fill="rgb(255, 255, 0)" rx="2" /><rect x="490" y="10" width="12" height="12" fill="rgb(255, 255, 0)" rx="2" /><rect x="505" y="10" width="12" height="12" fill="rgb(255, 255, 0)" rx="2" /><rect x="520" y="10" width="12" height="12" fill="rgb(240, 240, 0)" rx="2" /><rect x="535" y="10" width="12" height="12" fill="rgb(255, 255, 0)" rx="2" /><rect x="550" y="10" width="12" height="12" fill="rgb(255, 255, 0)" rx="2" /><rect x="565" y="10" width="12" height="12" fill="rgb(255, 255, 0)" rx="2" /><rect x="580" y="10" width="12" height="12" fill="rgb(255, 255, 0)" rx="2" /><rect x="595" y="10" width="12" height="12" fill="rgb(255, 255, 0)" rx="2" /><rect x="610" y="10" width="12" height="12" fill="rgb(255, 255, 0)" rx="2" /><rect x="625" y="10" width="12" height="12" fill="rgb(255, 255, 0)" rx="2" /><rect x="640" y="10" width="12" height="12" fill="rgb(255, 255, 0)" rx="2" /><rect x="655" y="10" width="12" height="12" fill="rgb(255, 255, 0)" rx="2" /><rect x="670" y="10" width="12" height="12" fill="rgb(200, 200, 0)" rx="2" /><rect x="685" y="10" width="12" height="12" fill="rgb(255, 255, 0)" rx="2" /><rect x="700" y="10" width="12" height="12" fill="rgb(255, 255, 0)" rx="2" /><rect x="715" y="10" width="12" height="12" fill="rgb(255, 255, 0)" rx="2" /><rect x="730" y="10" width="12" height="12" fill="rgb(255, 255, 0)" rx="2" /><rect x="745" y="10" width="12" height="12" fill="rgb(255, 255, 0)" rx="2" /><rect x="760" y="10" width="12" height="12" fill="rgb(255, 255, 0)" rx="2" /><rect x="775" y="10" width="12" height="12" fill="rgb(255, 255, 0)" rx="2" /></svg>